<?xml version="1.0" encoding="UTF-8" standalone="no" ?>
<!DOCTYPE svg PUBLIC "-//W3C//DTD SVG 1.1//EN" "http://www.w3.org/Graphics/SVG/1.1/DTD/svg11.dtd">
<svg xmlns="http://www.w3.org/2000/svg" xmlns:xlink="http://www.w3.org/1999/xlink" version="1.1" width="640" height="640" viewBox="0 0 640 640" xml:space="preserve">
<desc>Created with Fabric.js 5.3.0</desc>
<defs>
</defs>
<g transform="matrix(1.581395165 0 0 1.5813951526 390.6242425122 249.0127921102)" id="U_H-hqRtk0VcAe4FQZusX"  >
<linearGradient id="SVGID_3616" gradientUnits="userSpaceOnUse" gradientTransform="matrix(1 0 0 1 0 0)"  x1="0" y1="4.968733169084627" x2="83.62793096770112" y2="3.8639802277669517">
<stop offset="0%" style="stop-color:#6F0071;stop-opacity: 1"/>
<stop offset="50%" style="stop-color:#44034F;stop-opacity: 1"/>
<stop offset="100%" style="stop-color:#1A052D;stop-opacity: 1"/>
</linearGradient>
<path style="stroke: rgb(193,102,33); stroke-width: 0; stroke-dasharray: none; stroke-linecap: butt; stroke-dashoffset: 0; stroke-linejoin: miter; stroke-miterlimit: 4; fill: url(#SVGID_3616); fill-rule: nonzero; opacity: 1;" vector-effect="non-scaling-stroke"  transform=" translate(-43.000005, -55.10107)" d="M 0 21.37652 C 0 9.57059 9.57059 0 21.37652 0 L 64.62348 0 C 76.42941 0 86 9.57059 86 21.37652 L 86 85.51871 C 86 85.93978 85.98783 86.358 85.96381 86.77305 L 86.00000999999999 86.77305 L 86.00000999999999 110.20214 L 0.000009999999988963282 110.20214 L 0.000009999999988963282 86.77305 L 0.03618999999998896 86.77305 C 0.01216999999998896 86.358 -1.10397802011164e-14 85.93978 -1.10397802011164e-14 85.51871 z" stroke-linecap="round" />
</g>
<g transform="matrix(3.8915509945 0 0 3.8915509945 320 338.5008248358)" id="pqeyDxGm2WkpqJ1YZNX_8"  >
<linearGradient id="SVGID_3602" gradientUnits="userSpaceOnUse" gradientTransform="matrix(1 0 0 1 0.5 8.5)"  x1="-0.14929900125888906" y1="35.75" x2="71.74929900125888" y2="35.75">
<stop offset="0%" style="stop-color:#D70F84;stop-opacity: 1"/>
<stop offset="50%" style="stop-color:#730074;stop-opacity: 1"/>
<stop offset="100%" style="stop-color:#17052B;stop-opacity: 1"/>
</linearGradient>
<path style="stroke: none; stroke-width: 1; stroke-dasharray: none; stroke-linecap: butt; stroke-dashoffset: 0; stroke-linejoin: miter; stroke-miterlimit: 4; fill: url(#SVGID_3602); fill-rule: nonzero; opacity: 1;" vector-effect="non-scaling-stroke"  transform=" translate(-36.3, -44.25)" d="M 36.3 8.5 C 16.499999999999996 8.5 0.5 24.5 0.5 44.3 C 0.6 64 16.6 80 36.3 80 C 56 80 72 64 72.1 44.3 L 36.3 44.3 L 36.3 8.5 z" stroke-linecap="round" />
</g>
</svg>